<svg width="20" height="16" viewBox="0 0 20 16" fill="none" xmlns="http://www.w3.org/2000/svg">
<path d="M18.5492 13.1718C18.5492 13.5638 18.3854 13.9396 18.0939 14.2168C17.8024 14.4939 17.407 14.6496 16.9947 14.6496H3.00376C2.59147 14.6496 2.19607 14.4939 1.90453 14.2168C1.613 13.9396 1.44922 13.5638 1.44922 13.1718V5.04405C1.44922 4.65212 1.613 4.27624 1.90453 3.99911C2.19607 3.72197 2.59147 3.56628 3.00376 3.56628H6.11285L7.6674 1.34961H12.331L13.8856 3.56628H16.9947C17.407 3.56628 17.8024 3.72197 18.0939 3.99911C18.3854 4.27624 18.5492 4.65212 18.5492 5.04405V13.1718Z" stroke="#333333" stroke-width="2" stroke-linecap="round" stroke-linejoin="round"/>
<path d="M9.99922 11.7996C11.5732 11.7996 12.8492 10.5236 12.8492 8.94961C12.8492 7.3756 11.5732 6.09961 9.99922 6.09961C8.42521 6.09961 7.14922 7.3756 7.14922 8.94961C7.14922 10.5236 8.42521 11.7996 9.99922 11.7996Z" stroke="#333333" stroke-width="2" stroke-linecap="round" stroke-linejoin="round"/>
</svg>