<svg width="16" height="16" viewBox="0 0 16 16" fill="none" xmlns="http://www.w3.org/2000/svg">
<g clip-path="url(#clip0_2771_24697)">
<g clip-path="url(#clip1_2771_24697)">
<path d="M8.0013 0.666992C3.94352 0.666992 0.667969 3.94255 0.667969 8.00033C0.667969 12.0581 3.94352 15.3337 8.0013 15.3337C12.0591 15.3337 15.3346 12.0581 15.3346 8.00033C15.3346 3.94255 12.0591 0.666992 8.0013 0.666992ZM11.5702 6.48477L7.53686 10.5425C7.39019 10.6892 7.21908 10.7625 7.02352 10.7625C6.82797 10.7625 6.63241 10.6892 6.51019 10.5425L4.45686 8.44032C4.16352 8.14699 4.18797 7.68255 4.45686 7.41366C4.75019 7.12033 5.21464 7.14477 5.48352 7.41366L7.02352 8.9781L10.5191 5.43366C10.8124 5.14033 11.2769 5.14033 11.5457 5.43366C11.8391 5.72699 11.8635 6.19144 11.5702 6.48477Z" fill="black"/>
</g>
</g>
<defs>
<clipPath id="clip0_2771_24697">
<rect width="16" height="16" fill="white"/>
</clipPath>
<clipPath id="clip1_2771_24697">
<rect width="14.6667" height="14.6667" fill="white" transform="translate(0.667969 0.666992)"/>
</clipPath>
</defs>
</svg>
